#!OML:ASF H:\Terrain\Patient Classification 1\Terrain2\Thursday\justin.ASF
:FULLY-SPECIFIED
:DEGREES
3774
root 19.7411 17.5876 -18.9822 -181.723 -14.3787 -175.405
lowerback 7.65657 1.83242 -1.74911
upperback 3.44857 2.11354 1.48959
thorax -0.849612 0.934723 2.34233
lowerneck -11.7893 3.85034 -8.95268
upperneck 40.7623 2.11486 4.17192
head 16.3955 -1.44169 3.37138
rclavicle 3.0265e-014 -3.97569e-016
rhumerus -30.9894 -13.6902 -76.8116
rradius 34.6589
rwrist -11.4232
rhand -23.5346 11.4124
rfingers 7.12502
rthumb 2.92685 -18.5473
lclavicle 3.0265e-014 -3.97569e-016
lhumerus -38.1005 3.08935 81.8806
lradius 43.6482
lwrist 7.35796
lhand -19.4735 17.6917
lfingers 7.12502
lthumb 6.84812 47.561
rfemur -28.0135 -19.8717 19.9962
rtibia 91.8326
rfoot -21.3251 -0.812261
rtoes -3.64153
lfemur -10.6066 5.40246 -19.9832
ltibia 26.9949
lfoot -7.95225 -7.27449
ltoes 26.9787
3775
root 19.7615 17.5732 -19.0234 -181.44 -14.9025 -175.844
lowerback 7.47501 1.70327 -2.26836
upperback 3.59391 1.90323 1.36503
thorax -0.60019 0.819167 2.53019
lowerneck -11.8668 3.91861 -8.85337
upperneck 40.622 2.29409 4.09898
head 16.3256 -1.33424 3.35187
rclavicle 2.16675e-014 -1.74931e-014
rhumerus -30.3102 -13.1063 -77.1248
rradius 34.5186
rwrist -11.6917
rhand -23.5127 11.417
rfingers 7.12502
rthumb 2.94798 -18.5423
lclavicle 2.16675e-014 -1.74931e-014
lhumerus -37.8898 3.46705 81.471
lradius 43.7867
lwrist 6.4746
lhand -18.6147 17.5593
lfingers 7.12502
lthumb 7.67704 47.4
rfemur -28.6146 -19.6437 19.6518
rtibia 90.4045
rfoot -20.7438 -0.796015
rtoes -3.42978
lfemur -10.7348 5.20156 -20.3859
ltibia 27.1586
lfoot -11.7199 -7.33745
ltoes 7.67167
3776
root 19.7862 17.5647 -19.0648 -181.38 -15.2886 -175.921
lowerback 7.54219 1.60546 -2.54758
upperback 3.70748 1.74372 1.36822
thorax -0.518324 0.729763 2.7038
lowerneck -12.0043 3.94548 -8.96589
upperneck 40.6178 2.38253 4.16575
head 16.3446 -1.29681 3.4207
rclavicle 5.889e-014 -1.15295e-014
rhumerus -29.9846 -12.8693 -77.3182
rradius 34.7884
rwrist -11.5279
rhand -23.3107 11.1893
rfingers 7.12502
rthumb 3.14308 -18.7673
lclavicle 5.889e-014 -1.15295e-014
lhumerus -37.7763 3.70145 81.1682
lradius 44.1022
lwrist 6.24359
lhand -18.2481 17.837
lfingers 7.12502
lthumb 8.0309 47.6644
rfemur -28.9669 -19.0064 19.7724
rtibia 88.7479
rfoot -20.146 -0.9569
rtoes -3.55013
lfemur -10.7875 5.17054 -20.3322
ltibia 27.2768
lfoot -11.4198 -7.77623
ltoes 11.0022
3777
root 19.8104 17.5467 -19.1021 -181.264 -15.6781 -175.984
lowerback 7.6785 1.58246 -2.68927
upperback 3.71134 1.69857 1.34882
thorax -0.589906 0.706134 2.7645
lowerneck -12.1016 3.93789 -9.08074
upperneck 40.7235 2.35327 4.30844
head 16.4216 -1.31204 3.50644
rclavicle -4.2192e-014 2.34566e-014
rhumerus -30.0297 -12.8698 -77.3746
rradius 35.4982
rwrist -11.4803
rhand -23.2617 10.7995
rfingers 7.12502
rthumb 3.19034 -19.1564
lclavicle -4.2192e-014 2.34566e-014
lhumerus -37.6553 3.49583 81.0829
lradius 44.3863
lwrist 6.72786
lhand -19.1456 18.3319
lfingers 7.12502
lthumb 7.16459 48.1907
rfemur -29.3922 -18.4959 19.8441
rtibia 86.9638
rfoot -19.6593 -0.808328
rtoes -3.47947
lfemur -10.9944 5.13248 -20.2749
ltibia 27.6768
lfoot -12.0748 -8.0386
ltoes 8.14518
3778
root 19.8318 17.5161 -19.139 -181.098 -16.0976 -176.002
lowerback 7.7228 1.58213 -2.63035
upperback 3.67668 1.70358 1.25332
thorax -0.646105 0.712939 2.6308
lowerneck -12.0925 3.94475 -8.80215
upperneck 40.7692 2.34405 4.15913
head 16.4554 -1.29147 3.39126
rclavicle -1.86361e-014 -1.98785e-014
rhumerus -29.9729 -13.0217 -77.4694
rradius 35.807
rwrist -11.562
rhand -23.625 11.1836
rfingers 7.12502
rthumb 2.83951 -18.7773
lclavicle -1.86361e-014 -1.98785e-014
lhumerus -37.4181 3.09283 80.9602
lradius 44.4032
lwrist 7.4303
lhand -19.9915 18.3383
lfingers 7.12502
lthumb 6.34803 48.2232
rfemur -29.8503 -17.7621 19.9333
rtibia 85.097
rfoot -19.2454 -0.351955
rtoes -3.03139
lfemur -11.1447 5.14208 -20.204
ltibia 28.1204
lfoot -12.4147 -8.46767
ltoes 11.1601
3779
root 19.858 17.5222 -19.1893 -181.043 -16.3985 -175.898
lowerback 7.67105 1.57751 -2.634
upperback 3.77524 1.69191 1.2416
thorax -0.514816 0.701062 2.62401
lowerneck -12.3949 3.97526 -8.67842
upperneck 40.9419 2.44945 4.02763
head 16.623 -1.25098 3.34077
rclavicle 2.97183e-014 -5.96354e-015
rhumerus -29.5167 -12.9433 -77.6811
rradius 35.6413
rwrist -11.6278
rhand -23.8933 11.703
rfingers 7.12502
rthumb 2.58041 -18.2611
lclavicle 2.97183e-014 -5.96354e-015
lhumerus -37.0682 3.12246 80.6828
lradius 44.3494
lwrist 7.71403
lhand -19.7335 18.156
lfingers 7.12502
lthumb 6.59709 48.0333
rfemur -29.8962 -16.6997 20.2036
rtibia 82.8859
rfoot -18.8144 -0.0209927
rtoes -2.94314
lfemur -11.6238 4.94616 -19.8735
ltibia 28.5842
lfoot -17.0021 -8.28418
ltoes -6.98592
3780
root 19.8912 17.481 -19.2295 -180.91 -16.7832 -175.922
lowerback 7.61791 1.57681 -2.76065
upperback 3.84481 1.68014 1.2054
thorax -0.415219 0.690037 2.6608
lowerneck -12.4474 3.92265 -8.53668
upperneck 40.9774 2.4298 3.79804
head 16.6702 -1.26519 3.213
rclavicle 1.59028e-015 7.95139e-015
rhumerus -29.204 -12.9251 -77.8576
rradius 35.7286
rwrist -11.7409
rhand -23.8433 11.7032
rfingers 7.12502
rthumb 2.62872 -18.2603
lclavicle 1.59028e-015 7.95139e-015
lhumerus -36.9713 3.38652 80.348
lradius 44.6909
lwrist 7.46704
lhand -18.6363 18.5564
lfingers 7.12502
lthumb 7.65619 48.3978
rfemur -30.1305 -15.9524 20.3234
rtibia 80.8286
rfoot -18.5704 0.196287
rtoes -4.47036
lfemur -11.7089 5.10423 -19.7433
ltibia 28.9469
lfoot -20.3474 -7.82759
ltoes -17.3087
3781
root 19.9085 17.4562 -19.2659 -180.604 -17.3534 -176.271
lowerback 7.58687 1.53472 -2.9825
upperback 3.78942 1.61608 1.02518
thorax -0.451646 0.66165 2.60458
lowerneck -11.8512 3.8334 -8.09577
upperneck 40.586 2.33063 3.30004
head 16.3435 -1.27252 2.87704
rclavicle 3.30976e-014 -4.37326e-015
rhumerus -29.1515 -13.0822 -77.9537
rradius 35.9707
rwrist -11.8471
rhand -23.857 11.4805
rfingers 7.12502
rthumb 2.61544 -18.4832
lclavicle 3.30976e-014 -4.37326e-015
lhumerus -37.1778 3.77317 79.9808
lradius 45.3067
lwrist 7.05322
lhand -18.0535 19.2989
lfingers 7.12502
lthumb 8.21868 49.119
rfemur -30.3098 -15.4658 19.9156
rtibia 78.5957
rfoot -18.504 0.804584
rtoes -5.97286
lfemur -12.125 5.2156 -20.0615
ltibia 29.4792
lfoot -13.3409 -10.437
ltoes 7.22258
3782
root 19.9238 17.4432 -19.3077 -180.482 -17.864 -176.375
lowerback 7.741 1.49107 -2.99559
upperback 3.70399 1.55688 0.968037
thorax -0.619742 0.638704 2.55388
lowerneck -11.8694 3.95281 -8.19771
upperneck 40.9773 2.28692 3.72111
head 16.5447 -1.29071 3.08082
rclavicle 2.66371e-014 -9.93923e-015
rhumerus -29.066 -13.1504 -77.9068
rradius 35.8949
rwrist -11.8721
rhand -23.6314 11.6505
rfingers 7.12502
rthumb 2.83333 -18.3105
lclavicle 2.66371e-014 -9.93923e-015
lhumerus -37.2702 4.12454 79.7295
lradius 45.3667
lwrist 6.99252
lhand -18.186 19.6003
lfingers 7.12502
lthumb 8.09082 49.4255
rfemur -30.1831 -14.6859 19.698
rtibia 76.1834
rfoot -18.368 1.78876
rtoes -5.78043
lfemur -12.3755 5.20616 -20.0854
ltibia 29.9163
lfoot -14.0915 -10.8791
ltoes 6.77669
3783
root 19.9512 17.4239 -19.357 -180.678 -18.256 -175.849
lowerback 8.03122 1.48098 -2.54385
upperback 3.60991 1.57063 1.08434
thorax -0.869824 0.655102 2.41217
lowerneck -11.9112 4.00356 -8.28345
upperneck 41.3483 2.20082 3.98035
head 16.7553 -1.34524 3.20489
rclavicle 1.59028e-015 5.1684e-015
rhumerus -29.0611 -12.9899 -77.941
rradius 35.815
rwrist -12.1444
rhand -23.2718 11.9442
rfingers 7.12502
rthumb 3.18059 -18.0118
lclavicle 1.59028e-015 5.1684e-015
lhumerus -37.1162 4.45571 79.2908
lradius 44.7193
lwrist 6.2966
lhand -17.7806 19.1708
lfingers 7.12502
lthumb 8.48203 48.9805
rfemur -29.7493 -13.7063 20.2227
rtibia 73.576
rfoot -18.1904 2.46353
rtoes -6.65022
lfemur -12.4684 5.19067 -19.3613
ltibia 30.3902
lfoot -13.8208 -11.143
ltoes 9.68857
3784
root 19.9778 17.4005 -19.409 -180.895 -18.6447 -175.343
lowerback 7.59679 1.39784 -2.28818
upperback 4.0521 1.45986 1.26202
thorax -0.165342 0.573168 2.47391
lowerneck -12.1424 3.93017 -8.19487
upperneck 41.1415 2.26935 3.77572
head 16.7042 -1.28852 3.11558
rclavicle -1.09332e-014 1.59028e-015
rhumerus -28.1644 -12.7054 -78.2849
rradius 35.7559
rwrist -12.3656
rhand -23.1576 11.741
rfingers 7.12502
rthumb 3.29094 -18.2133
lclavicle -1.09332e-014 1.59028e-015
lhumerus -36.1287 5.32988 78.8004
lradius 44.0246
lwrist 5.43572
lhand -17.3697 18.3633
lfingers 7.12502
lthumb 8.87856 48.1565
rfemur -29.2244 -12.7917 20.6884
rtibia 70.9109
rfoot -18.0247 2.95605
rtoes -8.93487
lfemur -12.5744 5.20821 -18.6795
ltibia 30.9492
lfoot -14.8247 -11.1301
ltoes 5.49498
3785
root 19.9984 17.39 -19.4576 -180.875 -19.0304 -175.362
lowerback 7.82696 1.43122 -2.16317
upperback 3.91468 1.51588 1.11921
thorax -0.430864 0.6132 2.24595
lowerneck -11.6906 3.91468 -8.01335
upperneck 41.1231 2.0664 3.85468
head 16.5976 -1.34216 3.07407
rclavicle 8.64713e-015 -1.43125e-014
rhumerus -28.3484 -12.9477 -78.3983
rradius 35.8288
rwrist -12.3572
rhand -23.0808 11.6575
rfingers 7.12502
rthumb 3.3651 -18.2957
lclavicle 8.64713e-015 -1.43125e-014
lhumerus -35.9894 5.06112 78.5987
lradius 43.7397
lwrist 6.38082
lhand -18.4613 18.2206
lfingers 7.12502
lthumb 7.82509 48.0558
rfemur -28.7695 -11.6594 20.5196
rtibia 68.2605
rfoot -17.7664 3.93316
rtoes -9.24007
lfemur -12.7774 4.9276 -18.5727
ltibia 31.4882
lfoot -14.5454 -11.5759
ltoes 9.40786
3786
root 20.0213 17.3782 -19.5067 -180.801 -19.5087 -175.421
lowerback 7.89166 1.42561 -2.12624
upperback 3.8618 1.51359 1.02018
thorax -0.517556 0.617186 2.12139
lowerneck -11.5193 3.98103 -7.89782
upperneck 41.2661 2.01109 4.00241
head 16.6335 -1.34367 3.10929
rclavicle -2.36554e-014 1.39149e-014
rhumerus -28.363 -13.099 -78.5113
rradius 35.8297
rwrist -12.2067
rhand -23.1832 11.8074
rfingers 7.12502
rthumb 3.26615 -18.1473
lclavicle -2.36554e-014 1.39149e-014
lhumerus -35.8034 4.83368 78.5348
lradius 43.4748
lwrist 7.40802
lhand -19.6131 19.3041
lfingers 7.12502
lthumb 6.71329 49.1777
rfemur -28.3426 -10.5198 20.2674
rtibia 65.6817
rfoot -17.5969 5.36123
rtoes -7.90049
lfemur -12.99 4.52102 -18.4896
ltibia 31.9412
lfoot -15.3382 -11.6386
ltoes 6.82298
